<svg xmlns="http://www.w3.org/2000/svg" version="1.1" xmlns:xlink="http://www.w3.org/1999/xlink" xmlns:svgjs="http://svgjs.dev/svgjs" width="1440" height="637" preserveAspectRatio="none" viewBox="0 0 1440 637"><g mask="url(&quot;#SvgjsMask1117&quot;)" fill="none"><rect width="1440" height="637" x="0" y="0" fill="url(&quot;#SvgjsLinearGradient1118&quot;)"></rect><path d="M168.718,358.935C239.234,363.255,310.256,332.012,345.822,270.969C381.601,209.561,371.045,133.97,335.724,72.297C300.162,10.202,240.275,-38.226,168.718,-38.269C97.097,-38.312,33.093,7.887,1.363,72.096C-27.268,130.032,-6.972,195.532,25.595,251.35C57.831,306.602,104.87,355.023,168.718,358.935" fill="rgba(28, 83, 142, 0.4)" class="triangle-float3"></path><path d="M-38.696829568611726 173.5071560351096L152.28675747473747 166.83786221526154-45.36612338845979-17.476431008239587z" fill="rgba(28, 83, 142, 0.4)" class="triangle-float1"></path><path d="M206.4938507070136 17.303465404350142L36.22250393461647-69.45411909587725-50.53508056561091 100.81722767651988 119.73626620678621 187.57481217674726z" fill="rgba(28, 83, 142, 0.4)" class="triangle-float2"></path><path d="M1482.4666666666667-42.46666666666667L1291.3666666666668-42.466666666666654 1291.3666666666668 148.63333333333335 1482.4666666666667 148.63333333333335z" fill="rgba(28, 83, 142, 0.4)" class="triangle-float1"></path><path d="M1484.2856405314478 26.098399928968206L1400.7037202380573-70.05160059141296 1298.269679604181 103.39628010886356z" fill="rgba(28, 83, 142, 0.4)" class="triangle-float2"></path><path d="M1242.522195617191 131.8631959105286L1424.269095881195 190.916343535581 1301.5753432422434-49.88370435347528z" fill="rgba(28, 83, 142, 0.4)" class="triangle-float2"></path><path d="M40.862,610.904C65.017,611.458,91.225,607.417,104.116,586.982C117.691,565.462,113.837,537.707,100.831,515.839C88.131,494.485,65.707,480.653,40.862,480.629C15.976,480.605,-7.083,494.047,-19.31,515.722C-31.332,537.034,-30.632,563.507,-17.557,584.19C-5.294,603.589,17.918,610.377,40.862,610.904" fill="rgba(28, 83, 142, 0.4)" class="triangle-float3"></path><path d="M192.39710418913302 495.9709783098631L6.973590897790075 449.73970406076654-39.25768335130644 635.1632173521095 146.1658299400365 681.394491601206z" fill="rgba(28, 83, 142, 0.4)" class="triangle-float2"></path><path d="M145.555,841.345C205.223,838.112,237.814,777.307,264.669,723.926C288.04,677.47,300.128,625.793,277.567,578.938C251.673,525.159,205.226,475.109,145.555,476.542C87.388,477.939,52.114,534.036,24.09,585.027C-2.54,633.482,-21.91,688.206,1.768,738.171C28.844,795.307,82.421,844.766,145.555,841.345" fill="rgba(28, 83, 142, 0.4)" class="triangle-float2"></path><path d="M1425.907,770.173C1476.131,772.746,1518.47,734.336,1541.269,689.511C1562.028,648.697,1554.97,601.266,1531.951,561.683C1509.076,522.348,1471.392,492.408,1425.907,491.137C1378.279,489.806,1330.887,513.093,1309.075,555.454C1288.654,595.112,1308.033,639.471,1329.353,678.653C1352.069,720.402,1378.44,767.741,1425.907,770.173" fill="rgba(28, 83, 142, 0.4)" class="triangle-float2"></path><path d="M1395.61,713.819C1435.677,714.325,1462.46,677.474,1482.309,642.666C1501.912,608.291,1516.851,568.258,1498.657,533.117C1479.241,495.615,1437.84,475.226,1395.61,475.208C1353.348,475.19,1311.372,495.259,1292.412,533.029C1274.881,567.952,1293.256,606.585,1312.627,640.521C1332.236,674.874,1356.057,713.319,1395.61,713.819" fill="rgba(28, 83, 142, 0.4)" class="triangle-float2"></path><path d="M1422.448,761.122C1471.435,762.354,1515.143,729.433,1536.891,685.522C1556.532,645.865,1543.768,600.489,1520.716,562.713C1498.817,526.828,1464.35,501.383,1422.448,497.986C1373.196,493.993,1316.75,501.365,1292.078,544.179C1267.427,586.958,1292.125,637.688,1317.557,680.007C1341.958,720.611,1375.091,759.931,1422.448,761.122" fill="rgba(28, 83, 142, 0.4)" class="triangle-float3"></path></g><defs><mask id="SvgjsMask1117"><rect width="1440" height="637" fill="#ffffff"></rect></mask><linearGradient x1="13.94%" y1="131.51%" x2="86.06%" y2="-31.51%" gradientUnits="userSpaceOnUse" id="SvgjsLinearGradient1118"><stop stop-color="#0e2a47" offset="0"></stop><stop stop-color="rgba(69, 106, 154, 1)" offset="1"></stop></linearGradient><style>
                @keyframes float1 {
                    0%{transform: translate(0, 0)}
                    50%{transform: translate(-10px, 0)}
                    100%{transform: translate(0, 0)}
                }

                .triangle-float1 {
                    animation: float1 5s infinite;
                }

                @keyframes float2 {
                    0%{transform: translate(0, 0)}
                    50%{transform: translate(-5px, -5px)}
                    100%{transform: translate(0, 0)}
                }

                .triangle-float2 {
                    animation: float2 4s infinite;
                }

                @keyframes float3 {
                    0%{transform: translate(0, 0)}
                    50%{transform: translate(0, -10px)}
                    100%{transform: translate(0, 0)}
                }

                .triangle-float3 {
                    animation: float3 6s infinite;
                }
            </style></defs></svg>